<?xml version="1.0" encoding="UTF-8" standalone="no"?>
<svg
   width="100%"
   height="100%"
   viewBox="0 0 4016 1341"
   version="1.1"
   xml:space="preserve"
   style="fill-rule:evenodd;clip-rule:evenodd;stroke-miterlimit:10;"
   id="svg12"
   sodipodi:docname="PCB.svg"
   inkscape:version="1.3 (0e150ed, 2023-07-21)"
   xmlns:inkscape="http://www.inkscape.org/namespaces/inkscape"
   xmlns:sodipodi="http://sodipodi.sourceforge.net/DTD/sodipodi-0.dtd"
   xmlns:xlink="http://www.w3.org/1999/xlink"
   xmlns="http://www.w3.org/2000/svg"
   xmlns:svg="http://www.w3.org/2000/svg"
   xmlns:serif="http://www.serif.com/"><sodipodi:namedview
   id="namedview12"
   pagecolor="#ffffff"
   bordercolor="#000000"
   borderopacity="0.25"
   inkscape:showpageshadow="2"
   inkscape:pageopacity="0.0"
   inkscape:pagecheckerboard="0"
   inkscape:deskcolor="#d1d1d1"
   inkscape:zoom="0.38492027"
   inkscape:cx="1914.6822"
   inkscape:cy="628.70163"
   inkscape:window-width="1496"
   inkscape:window-height="819"
   inkscape:window-x="0"
   inkscape:window-y="39"
   inkscape:window-maximized="0"
   inkscape:current-layer="svg12" />&#10;    <image
   width="4014.4907"
   height="1340.4961"
   preserveAspectRatio="none"
   style="clip-rule:evenodd;display:inline;opacity:1;fill-rule:evenodd;stroke-width:1.33383;stroke-miterlimit:10;image-rendering:optimizeQuality"
   xlink:href="PCB%20Bottom.jpg"
   id="image1"
   x="-8.1945302e-08"
   y="-0.86192805"
   inkscape:label="BottomPCB" />&#10;    <g
   id="Layer-2"
   serif:id="Layer 2"
   transform="matrix(1,0,0,1,1710,249.11)">&#10;        <g
   transform="matrix(1,0,0,1,1791.22,119.162)"
   id="g1">&#10;            <path
   d="M0,3.604L20.66,3.604L26.921,12.369L26.921,90L58.171,127.434L118.168,125.382L152.525,87.692L155.603,-76.915L112.527,-119.733L-285.264,-117.411L-302.088,-100.4L-714.603,-100.586L-726.93,-112.672L-1082,-109.342L-1101.06,-123.83L-1449.55,-115.415L-1483.23,-87.199"
   style="fill:none;fill-rule:nonzero;stroke:rgb(65,35,18);stroke-width:3px;"
   id="path1" />&#10;        </g>&#10;        <g
   transform="matrix(1,0,0,1,1608.87,50.1682)"
   id="g2">&#10;            <path
   d="M0,73.899L22.288,73.899L36.143,86.248L37.949,170.581L93.369,215.458L379.407,208.645L401.958,192.064L401.958,-29.135L369.127,-62.63L-291.484,-57.656L-299.443,-64.62L-469.57,-64.62L-481.464,-54.836L-899.697,-54.836L-911.968,-64.62L-1285.72,-57.324L-1300.88,-42.4L-1300.88,-34.441L-1459.49,-34.441L-1459.49,-141.559"
   style="fill:none;fill-rule:nonzero;stroke:white;stroke-width:3px;"
   id="path2" />&#10;        </g>&#10;        <g
   transform="matrix(1,0,0,1,174.206,-12.4167)"
   id="g3">&#10;            <path
   d="M0,-103.558L12.541,-119.823L30.569,-119.823L54.476,-93.76L116.006,-93.76L161.272,-133.344L972.623,-134.601L1012.45,-97.819L1012.45,31.043"
   style="fill:none;fill-rule:nonzero;stroke:rgb(65,35,18);stroke-width:3px;"
   id="path3" />&#10;        </g>&#10;        <g
   transform="matrix(1,0,0,1,149.38,294.867)"
   id="g4">&#10;            <path
   d="M0,-409.376L26.245,-441.884L56.89,-441.884L85.346,-412.294L133.868,-412.294L180.565,-452.425L1028.72,-453.92L1159.86,-326.123L1847.73,-333.023L1919.03,-258.715L1919.03,-198.317L1875.89,-150.861L1875.89,44.544L1823.61,44.544"
   style="fill:none;fill-rule:nonzero;stroke:rgb(141,198,64);stroke-width:3px;"
   id="path4" />&#10;        </g>&#10;        <g
   transform="matrix(1,0,0,1,124.809,394.585)"
   id="g5">&#10;            <path
   d="M0,-512.155L39.634,-551.529L85.267,-551.529L114.21,-521.02L149.672,-521.02L199.999,-562.741L1084.62,-565.215L1186.35,-475.2L1864.08,-481.662L1966.6,-371.212L1966.6,-5.802L1912.69,50.084L1658.06,53.06L1556.87,-89.466L1487.76,-89.466"
   style="fill:none;fill-rule:nonzero;stroke:rgb(255,219,138);stroke-width:3px;"
   id="path5" />&#10;        </g>&#10;        <g
   transform="matrix(1,0,0,1,1794.06,-19.3625)"
   id="g6">&#10;            <path
   d="M0,324.481L51.318,324.481L165.422,399.062L220.671,399.062L244.619,374.258L244.619,168.127L286.529,123.223L286.529,50.094L198.86,-44.418L-480.687,-36.292L-485.818,-44.418L-650.894,-44.418L-685.954,-9.35L-1075.13,-9.35L-1084.11,-18.759L-1505.6,-9.267L-1666.64,-9.267L-1666.64,-74.581"
   style="fill:none;fill-rule:nonzero;stroke:rgb(0,169,157);stroke-width:3px;"
   id="path6" />&#10;        </g>&#10;        <g
   transform="matrix(1,0,0,1,1303.2,37.722)"
   id="g7">&#10;            <path
   d="M0,-74.873L-161.118,-74.873L-186.003,-54.194L-590.657,-54.194L-601.872,-63.578L-1004.24,-56.025L-1014.31,-46.87L-1014.31,-39.546L-1174.29,-39.546L-1214.83,0"
   style="fill:none;fill-rule:nonzero;stroke:rgb(141,198,64);stroke-width:3px;"
   id="path7" />&#10;        </g>&#10;        <g
   transform="matrix(1,0,0,1,105.253,458.945)"
   id="g8">&#10;            <path
   d="M0,-550.335L0,-526.975L192.384,-529.166L211.28,-512.071L974.852,-512.948L1036.24,-566.863L1876.1,-572.562L1998.39,-438.868L2001.82,-35.182L1938.27,22.227L1865.64,22.227"
   style="fill:none;fill-rule:nonzero;stroke:rgb(237,32,36);stroke-width:3px;"
   id="path8" />&#10;        </g>&#10;        <g
   transform="matrix(1,0,0,1,25.7041,-84.8299)"
   id="g9">&#10;            <path
   d="M0,119.301L77.906,41.616L238.139,41.616L246.463,31.906L269.121,31.906L282.286,44.391L1078.3,36.992L1121.34,0L1280.69,0"
   style="fill:none;fill-rule:nonzero;stroke:rgb(255,219,138);stroke-width:3px;"
   id="path9" />&#10;        </g>&#10;        <g
   transform="matrix(1,0,0,1,58.8711,499.986)"
   id="g10">&#10;            <path
   d="M0,-613.603L0,-656.29L10.841,-672.351L179.478,-672.351L218.425,-692.025L1475.17,-698.851L1531.79,-639.828L1931.3,-641.033L2066.61,-494.078L2065.15,40.216L2025.07,83.21L1969.03,85.248L1949.67,55.19L1874.27,55.7L1845.74,18.001L1813.14,18.001L1785.54,45.596L1692.11,45.596L1619.09,-46.375L1548.37,-46.375L1531.47,-63.273L1520.98,-390.702L1533.6,-399.678L1594.19,-401.08L1607.93,-384.811L1653.94,-384.811L1667.68,-399.678L1757.16,-400.8L1773.99,-383.689L1773.99,-301.782L1798.68,-273.731L1839.07,-273.731L1873.01,-306.802L1873.01,-451.29L1834.3,-488.316L1471.89,-488.316L1439.07,-455.778L1027.46,-453.502L996.862,-481.36L617.216,-481.36L607.179,-494.527L286.589,-486.183L258.081,-460.804"
   style="fill:none;fill-rule:nonzero;stroke:rgb(247,236,19);stroke-width:3px;"
   id="path10" />&#10;        </g>&#10;        <g
   transform="matrix(1,0,0,1,1794.18,-129.595)"
   id="g11">&#10;            <path
   d="M0,613.632L130.981,613.632L155.813,640.737L155.813,669.797L235.067,669.797L247.22,661.343L247.22,633.264L327.529,561.484L320.661,141.44L192.271,1.954L-217.206,4.596L-274.269,-56.165L-1482.67,-49.641L-1523.78,-17.422L-1690.57,-17.422L-1690.57,12.94"
   style="fill:none;fill-rule:nonzero;stroke:rgb(185,82,159);stroke-width:3px;"
   id="path11" />&#10;        </g>&#10;        <g
   transform="matrix(1,0,0,1,1251.29,280.765)"
   id="g12">&#10;            <path
   d="M0,-175.943L235.414,-175.943L315.501,-254.319L637.271,-257.739L668.906,-225.534L668.906,-122.932L654.371,-107.827L611.621,-105.547L593.381,-129.202L593.665,-167.963L568.585,-195.039L461.423,-192.473L449.453,-179.363L423.518,-179.078L406.702,-193.647L334.453,-191.903L315.786,-179.363L327.186,163.783L347.991,184.303L420.952,183.162L494.769,276.645L600.506,276.645L628.151,248.429L647.531,248.144L676.602,284.91L742.723,286.334L766.596,316.83L836.489,316.83L890.355,261.254L884.09,-287.979L734.57,-448.574L350.633,-448.574L300.535,-492.773L-1014.05,-485.3L-1048.04,-469.059L-1218.28,-468.457L-1218.28,-394.382"
   style="fill:none;fill-rule:nonzero;stroke:rgb(32,181,115);stroke-width:3px;"
   id="path12" />&#10;        </g>&#10;    </g>&#10;    <defs
   id="defs12" />&#10;<image
   width="4018.405"
   height="1381.1536"
   preserveAspectRatio="none"
   style="opacity:1;stroke-width:3.05035;image-rendering:optimizeQuality"
   xlink:href="PCB%20Top.jpg"
   id="image1-0"
   x="2.6439254"
   y="-17.273315"
   inkscape:label="TopPCB" /></svg>
